# AST/ASF file generated using VICON BodyLanguage
# -----------------------------------------------
:version 1.10
:name VICON
:units
  mass 1.0
  length 0.45
  angle deg
:documentation
   .ast/.asf automatically generated from VICON data using
   VICON BodyBuilder and BodyLanguage model FoxedUp or BRILLIANT.MOD
:root
   order TX TY TZ RX RY RZ
   axis XYZ
   position 0 0 0  
   orientation 0 0 0 
:bonedata
  begin
     id 1 
     name lhipjoint
     direction 0.702568 -0.596508 0.388042 
     length 2.56661 
     axis 0 0 0  XYZ
  end
  begin
     id 2 
     name lfemur
     direction 0.34202 -0.939693 0  
     length 6.58374  
     axis 0 0 20  XYZ
    dof rx ry rz
    limits (-160.0 20.0)
           (-70.0 70.0)
           (-60.0 70.0)
  end
  begin
     id 3 
     name ltibia
     direction 0.34202 -0.939693 0   
     length 6.62538   
     axis 0 0 20   XYZ
    dof rx
    limits (-10.0 170.0)
  end
  begin
     id 4 
     name lfoot
     direction 0.10455 -0.287249 0.952133   
     length 2.26699   
     axis -90 7.62852e-016 20   XYZ
    dof rx rz
    limits (-45.0 90.0)
           (-70.0 20.0)
  end
  begin
     id 5 
     name ltoes
     direction 1.53572e-011 -4.22322e-011 1   
     length 1.12949   
     axis -90 7.62852e-016 20   XYZ
    dof rx
    limits (-90.0 20.0)
  end
  begin
     id 6 
     name rhipjoint
     direction -0.728055 -0.574632 0.373811   
     length 2.66432  
     axis 0 0 0  XYZ 
  end
  begin
     id 7 
     name rfemur
     direction -0.34202 -0.939693 0   
     length 6.66732   
     axis 0 0 -20   XYZ
    dof rx ry rz
    limits (-160.0 20.0)
           (-70.0 70.0)
           (-70.0 60.0)
  end
  begin
     id 8 
     name rtibia
     direction -0.34202 -0.939693 0   
     length 6.59288   
     axis 0 0 -20   XYZ
    dof rx
    limits (-10.0 170.0)
 end
 begin
     id 9 
     name rfoot
     direction -0.119193 -0.327479 0.93731   
     length 2.38061  
     axis -90 -7.62852e-016 -20   XYZ
    dof rx rz
    limits (-45.0 90.0)
           (-20.0 70.0)
  end
  begin
     id 10 
     name rtoes
     direction -1.53547e-011 -4.21827e-011 1   
     length 1.17899   
     axis -90 -7.62852e-016 -20   XYZ
    dof rx
    limits (-90.0 20.0)
  end
  begin
     id 11 
     name lowerback
     direction -0.000416114 0.999912 -0.0132284   
     length 2.12109   
     axis 0 0 0   XYZ
    dof rx ry rz
    limits (-20.0 45.0)
           (-30.0 30.0)
           (-30.0 30.0)
  end
  begin
     id 12 
     name upperback
     direction -0.00136371 0.99809 0.0617608   
     length 2.10067   
     axis 0 0 0   XYZ
    dof rx ry rz
    limits (-20.0 45.0)
           (-30.0 30.0)
           (-30.0 30.0)
  end
  begin
     id 13 
     name thorax
     direction -3.43026e-005 0.997776 0.0666515   
     length 2.10618   
     axis 0 0 0   XYZ
    dof rx ry rz
    limits (-20.0 45.0)
           (-30.0 30.0)
           (-30.0 30.0)
  end
  begin
     id 14 
     name lowerneck
     direction 0.0398646 0.998418 0.0396592   
     length 1.83817   
     axis 0 0 0   XYZ
    dof rx ry rz
    limits (-20.0 45.0)
           (-30.0 30.0)
           (-30.0 30.0)
  end
  begin
     id 15 
     name upperneck
     direction -0.0367268 0.961527 -0.272244   
     length 1.81975   
     axis 0 0 0   XYZ
    dof rx ry rz
    limits (-20.0 45.0)
           (-30.0 30.0)
           (-30.0 30.0)
  end
  begin
     id 16
     name head
     direction -0.0182665 0.99536 -0.0944669  
     length 1.86026  
     axis 0 0 0   XYZ
    dof rx ry rz
    limits (-20.0 45.0)
           (-30.0 30.0)
           (-30.0 30.0)
  end
  begin
     id 17 
     name lclavicle
     direction 0.924239 0.361045 0.124212  
     length 3.26878  
     axis 0 0 0   XYZ
    dof ry rz
    limits (-20.0 10.0)
           (0.0 20.0)
  end
  begin
     id 18 
     name lhumerus
     direction 1 -4.48968e-011 -2.56583e-027   
     length 4.58538   
     axis 180 -30 -90   XYZ
    dof rx ry rz
    limits (-60.0 90.0)
           (-90.0 90.0)
           (-90.0 90.0)
  end
  begin
     id 19
     name lradius
     direction 1 -4.4898e-011 -5.50375e-027   
     length 2.68935   
     axis 180 -30 -90   XYZ
    dof rx
    limits (-10.0 170.0)
  end
  begin
     id 20
     name lwrist
     direction 1 -4.48939e-011 -1.48955e-026   
     length 1.34468   
     axis 9.0955e-015 90 90   XYZ
    dof ry
    limits (-180.0 0.0)
 end
  begin
     id 21 
     name lhand
     direction 1 -4.48936e-011 -2.97907e-026   
     length 0.585058   
     axis 1.90115e-014 90 90   XYZ
    dof rx rz
    limits (-90.0 90.0)
           (-45.0 45.0)
  end
  begin
     id 22 
     name lfingers
     direction 1 -4.49082e-011 -5.96235e-026   
     length 0.471689   
     axis 3.80223e-014 90 90   XYZ
    dof rx
    limits (0.0 90.0)
  end
  begin
     id 23
     name lthumb
     direction 0.707107 -6.3489e-011 0.707107   
     length 0.677253   
     axis -90 45 -3.84942e-014   XYZ
    dof rx rz
    limits (-45.0 45.0)
           (-45.0 45.0)
  end
  begin
     id 24 
     name rclavicle
     direction -0.923098 0.371783 0.0983239   
     length 3.19656  
     axis 0 0 0   XYZ 
    dof ry rz
    limits (-10.0 20.0)
           (-20.0 0.0)
  end
  begin
     id 25 
     name rhumerus
     direction -1 -4.48976e-011 -2.5492e-027  
     length 4.4745   
     axis 180 30 90   XYZ
    dof rx ry rz
    limits (-90.0 60.0)
           (-90.0 90.0)
           (-90.0 90.0)
  end
  begin
     id 26 
     name rradius
     direction -1 -4.48941e-011 -4.36555e-027   
     length 2.93896   
     axis 180 30 90   XYZ
    dof rx
    limits (-10.0 170.0)
  end
  begin
     id 27 
     name rwrist
     direction -1 -4.49044e-011 -1.49032e-026   
     length 1.46948   
     axis 9.0955e-015 -90 -90   XYZ
    dof ry
    limits (-180.0 0.0)
  end
  begin
     id 28
     name rhand
     direction -1 -4.48826e-011 -2.97749e-026   
     length 0.405092   
     axis 1.90115e-014 -90 -90   XYZ
    dof rx rz
    limits (-90.0 90.0)
           (-45.0 45.0)
  end
  begin
     id 29
     name rfingers
     direction -1 -4.49209e-011 -5.96602e-026   
     length 0.326596   
     axis 3.80223e-014 -90 -90   XYZ
    dof rx
    limits (0.0 90.0)
  end
  begin
     id 30
     name rthumb
     direction -0.707107 -6.34776e-011 0.707107   
     length 0.468928   
     axis -90 -45 3.84942e-014   XYZ
    dof rx rz
    limits (-45.0 45.0)
           (-45.0 45.0)
  end
:hierarchy
  begin
    root lhipjoint rhipjoint lowerback
    lhipjoint lfemur
    lfemur ltibia
    ltibia lfoot
    lfoot ltoes
    rhipjoint rfemur
    rfemur rtibia
    rtibia rfoot
    rfoot rtoes
    lowerback upperback
    upperback thorax
    thorax lowerneck lclavicle rclavicle
    lowerneck upperneck
    upperneck head
    lclavicle lhumerus
    lhumerus lradius
    lradius lwrist
    lwrist lhand lthumb
    lhand lfingers
    rclavicle rhumerus
    rhumerus rradius
    rradius rwrist
    rwrist rhand rthumb
    rhand rfingers
  end

#!OML:ASF H:\Punching\Project 1\Capture day 1\Session 1\female.ASF
:FULLY-SPECIFIED
:DEGREES
942
root -1.63784 15.3701 7.24509 13.026 -14.0719 2.01005
lowerback -0.556541 -2.19993 0.192079
upperback -6.92379 -2.86149 2.15103
thorax -6.78797 -1.37475 2.29061
lowerneck -12.6369 -4.45624 1.5032
upperneck 23.3643 -7.28068 2.21881
head 9.49062 -3.05118 -0.353736
rclavicle -7.02766e-014 1.35174e-014
rhumerus -12.4475 -19.1032 -58.6242
rradius 82.3906
rwrist -22.9284
rhand -32.3104 2.01976
rfingers 7.12502
rthumb -5.54847 -27.8876
lclavicle -7.02766e-014 1.35174e-014
lhumerus -54.7076 -30.1251 101.422
lradius 112.202
lwrist -0.252047
lhand -29.4698 5.53962
lfingers 7.12502
lthumb -2.80546 35.5009
rfemur -35.2346 -5.31654 11.7192
rtibia 43.8174
rfoot -16.6268 -10.0549
rtoes -3.96741
lfemur 0.477867 -3.59149 -9.81097
ltibia 5.25359
lfoot -13.1205 23.3415
ltoes -8.49558
943
root -1.58985 15.3796 7.22963 12.9329 -13.6109 1.69707
lowerback -0.532916 -2.16053 0.429709
upperback -6.90426 -2.8 2.13878
thorax -6.79485 -1.35797 2.14267
lowerneck -12.6359 -4.38148 1.66781
upperneck 23.65 -7.21583 2.1599
head 9.58256 -3.0057 -0.397393
rclavicle 3.25013e-014 -1.35174e-014
rhumerus -12.3974 -17.8599 -59.5181
rradius 82.7518
rwrist -22.6077
rhand -31.6254 1.263
rfingers 7.12502
rthumb -4.88702 -28.6606
lclavicle 3.25013e-014 -1.35174e-014
lhumerus -53.7014 -30.7176 101.128
lradius 112.202
lwrist -0.0896763
lhand -29.4582 5.77891
lfingers 7.12502
lthumb -2.79425 35.7404
rfemur -34.6937 -5.31365 11.8395
rtibia 43.2058
rfoot -16.2588 -10.3251
rtoes -4.17469
lfemur -0.787558 -3.8339 -9.65178
ltibia 7.49175
lfoot -14.0127 23.5603
ltoes -8.08051
944
root -1.53845 15.3896 7.21386 12.8341 -13.1481 1.39996
lowerback -0.514883 -2.12079 0.654669
upperback -6.88358 -2.73869 2.12356
thorax -6.79642 -1.34066 1.99834
lowerneck -12.6421 -4.30176 1.83254
upperneck 23.9523 -7.14504 2.10046
head 9.68229 -2.95669 -0.441074
rclavicle -4.46147e-014 2.70347e-014
rhumerus -12.3429 -16.5712 -60.4131
rradius 83.0986
rwrist -22.2881
rhand -30.8386 0.448983
rfingers 7.12502
rthumb -4.12732 -29.4908
lclavicle -4.46147e-014 2.70347e-014
lhumerus -52.6614 -31.3268 100.871
lradius 112.156
lwrist -0.0202688
lhand -29.5319 6.03867
lfingers 7.12502
lthumb -2.86544 35.9992
rfemur -34.1429 -5.33209 11.9309
rtibia 42.5703
rfoot -15.8746 -10.5693
rtoes -4.39535
lfemur -1.75782 -4.11099 -9.49672
ltibia 9.12779
lfoot -14.5849 23.8123
ltoes -7.70606
945
root -1.48364 15.3998 7.19811 12.7197 -12.6919 1.13087
lowerback -0.493022 -2.07231 0.851179
upperback -6.86124 -2.66688 2.10085
thorax -6.7973 -1.31668 1.86159
lowerneck -12.6547 -4.22469 2.00279
upperneck 24.2652 -7.07832 2.0349
head 9.78723 -2.90907 -0.488658
rclavicle 3.71479e-015 1.59028e-015
rhumerus -12.3043 -15.2564 -61.2866
rradius 83.4457
rwrist -22.0232
rhand -29.9308 -0.377032
rfingers 7.12502
rthumb -3.25063 -30.332
lclavicle 3.71479e-015 1.59028e-015
lhumerus -51.5831 -31.9489 100.648
lradius 112.061
lwrist -0.0271375
lhand -29.6104 6.29559
lfingers 7.12502
lthumb -2.94117 36.2551
rfemur -33.5747 -5.35508 11.9748
rtibia 41.9145
rfoot -15.4805 -10.7981
rtoes -4.6199
lfemur -2.5484 -4.40785 -9.3725
ltibia 10.4268
lfoot -14.9995 24.0619
ltoes -7.40971
946
root -1.42563 15.4106 7.18198 12.5983 -12.2373 0.887119
lowerback -0.471141 -2.0206 1.01805
upperback -6.83775 -2.59182 2.07586
thorax -6.7953 -1.28941 1.7387
lowerneck -12.6773 -4.14671 2.17218
upperneck 24.5861 -7.01083 1.96966
head 9.89772 -2.86041 -0.536381
rclavicle 4.60808e-014 5.56597e-015
rhumerus -12.2608 -13.9124 -62.1499
rradius 83.7846
rwrist -21.8312
rhand -28.8513 -1.19147
rfingers 7.12502
rthumb -2.20809 -31.1598
lclavicle 4.60808e-014 5.56597e-015
lhumerus -50.468 -32.5815 100.467
lradius 111.92
lwrist -0.0900162
lhand -29.6898 6.53297
lfingers 7.12502
lthumb -3.01785 36.4914
rfemur -32.9974 -5.37665 11.9751
rtibia 41.2385
rfoot -15.0733 -11.0226
rtoes -4.84877
lfemur -3.22096 -4.26659 -9.30193
ltibia 11.4944
lfoot -15.2502 23.8534
ltoes -7.25621
947
root -1.36456 15.4218 7.16532 12.4744 -11.7872 0.667582
lowerback -0.449198 -1.96749 1.15054
upperback -6.81777 -2.51582 2.05407
thorax -6.795 -1.25955 1.63832
lowerneck -12.6963 -4.06659 2.3332
upperneck 24.9126 -6.93803 1.90292
head 10.0105 -2.80983 -0.582679
rclavicle -1.80894e-014 2.38542e-015
rhumerus -12.2236 -12.5218 -62.9955
rradius 84.1311
rwrist -21.7498
rhand -27.7673 -1.91358
rfingers 7.12502
rthumb -1.16116 -31.8902
lclavicle -1.80894e-014 2.38542e-015
lhumerus -49.3185 -33.2109 100.325
lradius 111.733
lwrist -0.167095
lhand -29.7329 6.74337
lfingers 7.12502
lthumb -3.05953 36.7012
rfemur -32.4167 -5.37914 11.9309
rtibia 40.5448
rfoot -14.6468 -11.2589
rtoes -5.09995
lfemur -3.80042 -4.20962 -9.26455
ltibia 12.3796
lfoot -15.4294 23.6897
ltoes -7.24016
948
root -1.30035 15.4334 7.14831 12.3526 -11.348 0.468069
lowerback -0.427826 -1.90804 1.2524
upperback -6.80165 -2.4322 2.03418
thorax -6.79682 -1.22406 1.55662
lowerneck -12.7066 -3.98954 2.48934
upperneck 25.2342 -6.86838 1.8394
head 10.121 -2.76075 -0.627208
rclavicle 3.63155e-014 4.77083e-015
rhumerus -12.1994 -11.0807 -63.8208
rradius 84.4831
rwrist -21.778
rhand -26.805 -2.5103
rfingers 7.12502
rthumb -0.231704 -32.4899
lclavicle 3.63155e-014 4.77083e-015
lhumerus -48.1444 -33.8442 100.23
lradius 111.505
lwrist -0.257988
lhand -29.7269 6.91286
lfingers 7.12502
lthumb -3.05371 36.8707
rfemur -31.8371 -5.3511 11.8449
rtibia 39.832
rfoot -14.2009 -11.5126
rtoes -5.35654
lfemur -4.30644 -4.23475 -9.25433
ltibia 13.1196
lfoot -15.5597 23.5613
ltoes -7.33085
949
root -1.23303 15.4456 7.13038 12.2468 -10.9167 0.288997
lowerback -0.417229 -1.85523 1.32462
upperback -6.79183 -2.35821 2.02388
thorax -6.79705 -1.19138 1.50168
lowerneck -12.7112 -3.90345 2.63265
upperneck 25.5519 -6.78171 1.77432
head 10.2301 -2.70515 -0.66794
rclavicle 1.22538e-013 -1.82882e-014
rhumerus -12.1648 -9.5522 -64.6471
rradius 84.8385
rwrist -21.9146
rhand -25.9865 -2.96514
rfingers 7.12502
rthumb 0.558781 -32.9442
lclavicle 1.22538e-013 -1.82882e-014
lhumerus -46.9474 -34.4579 100.175
lradius 111.248
lwrist -0.318625
lhand -29.6735 7.04518
lfingers 7.12502
lthumb -3.00214 37.0038
rfemur -31.276 -5.29455 11.72
rtibia 39.101
rfoot -13.7272 -11.7898
rtoes -5.61817
lfemur -4.76762 -4.32596 -9.26535
ltibia 13.7363
lfoot -15.6535 23.4382
ltoes -7.47726
950
root -1.16227 15.4585 7.11176 12.1594 -10.5042 0.121371
lowerback -0.417701 -1.80101 1.37777
upperback -6.7834 -2.28285 2.02196
thorax -6.79106 -1.1567 1.4656
lowerneck -12.7228 -3.81232 2.7742
upperneck 25.8574 -6.68568 1.706
head 10.3369 -2.64578 -0.708411
rclavicle 7.95139e-016 1.59028e-015
rhumerus -12.1452 -7.92357 -65.4544
rradius 85.2133
rwrist -22.1689
rhand -25.3166 -3.26609
rfingers 7.12502
rthumb 1.2058 -33.2424
lclavicle 7.95139e-016 1.59028e-015
lhumerus -45.7428 -35.0652 100.172
lradius 110.976
lwrist -0.368294
lhand -29.5921 7.16881
lfingers 7.12502
lthumb -2.92349 37.1285
rfemur -30.7361 -5.20302 11.5646
rtibia 38.3506
rfoot -13.2208 -12.0874
rtoes -5.8921
lfemur -5.1925 -4.46618 -9.28987
ltibia 14.2497
lfoot -15.7119 23.3087
ltoes -7.68828
951
root -1.08782 15.4719 7.09265 12.0894 -10.1185 -0.0353539
lowerback -0.431982 -1.74387 1.41492
upperback -6.76998 -2.20414 2.02873
thorax -6.77065 -1.11919 1.44661
lowerneck -12.7541 -3.71548 2.92026
upperneck 26.1458 -6.57882 1.62666
head 10.4415 -2.58224 -0.752455
rclavicle -2.94077e-014 3.97569e-015
rhumerus -12.1266 -6.21361 -66.2497
rradius 85.6077
rwrist -22.512
rhand -24.6958 -3.44104
rfingers 7.12502
rthumb 1.80541 -33.4132
lclavicle -2.94077e-014 3.97569e-015
lhumerus -44.5267 -35.6603 100.211
lradius 110.701
lwrist -0.402031
lhand -29.4697 7.28978
lfingers 7.12502
lthumb -2.80535 37.2511
rfemur -30.2187 -5.07838 11.3796
rtibia 37.5817
rfoot -12.6863 -12.3995
rtoes -6.15638
lfemur -5.58191 -4.63893 -9.32948
ltibia 14.6701
lfoot -15.7536 23.1587
ltoes -7.91457
952
root -1.00973 15.4862 7.07251 12.0462 -9.75285 -0.184122
lowerback -0.463497 -1.69065 1.44344
upperback -6.75286 -2.13103 2.04659
thorax -6.73545 -1.08366 1.44357
lowerneck -12.8068 -3.60893 3.0654
upperneck 26.4143 -6.4549 1.53917
head 10.5434 -2.51201 -0.797386
rclavicle -2.77056e-014 2.8625e-014
rhumerus -12.1007 -4.42189 -67.0404
rradius 86.0221
rwrist -22.9024
rhand -24.0586 -3.53615
rfingers 7.12502
rthumb 2.42076 -33.5022
lclavicle -2.77056e-014 2.8625e-014
lhumerus -43.3148 -36.2508 100.297
lradius 110.427
lwrist -0.421208
lhand -29.353 7.42741
lfingers 7.12502
lthumb -2.69266 37.3902
rfemur -29.7342 -4.93705 11.1746
rtibia 36.7936
rfoot -12.1183 -12.7228
rtoes -6.41155
lfemur -5.95165 -4.82258 -9.377
ltibia 14.9998
lfoot -15.7619 22.968
ltoes -8.16813
953
root -0.928036 15.5013 7.05188 12.0194 -9.41286 -0.320819
lowerback -0.490063 -1.63275 1.47185
upperback -6.73977 -2.05158 2.0632
thorax -6.70752 -1.04501 1.43935
lowerneck -12.8734 -3.50078 3.21622
upperneck 26.6636 -6.32733 1.44522
head 10.6414 -2.44057 -0.845175
rclavicle 2.73329e-015 -1.90833e-014
rhumerus -12.1066 -2.57803 -67.8207
rradius 86.473
rwrist -23.3215
rhand -23.3795 -3.58936
rfingers 7.12502
rthumb 3.0766 -33.5469
lclavicle 2.73329e-015 -1.90833e-014
lhumerus -42.1409 -36.8422 100.436
lradius 110.163
lwrist -0.438418
lhand -29.2071 7.55524
lfingers 7.12502
lthumb -2.55173 37.5197
rfemur -29.2705 -4.76935 10.9422
rtibia 35.9888
rfoot -11.5232 -13.0634
rtoes -6.64124
lfemur -6.28483 -5.00913 -9.44142
ltibia 15.2343
lfoot -15.7334 22.7389
ltoes -8.4353
954
root -0.843033 15.5175 7.03067 12.005 -9.09673 -0.443754
lowerback -0.520427 -1.57358 1.49533
upperback -6.71969 -1.97087 2.08047
thorax -6.66969 -1.00544 1.43822
lowerneck -12.9578 -3.39008 3.36801
upperneck 26.8838 -6.19423 1.34831
head 10.7328 -2.36734 -0.893501
rclavicle 2.55935e-014 -1.59028e-015
rhumerus -12.1024 -0.720954 -68.6076
rradius 86.9295
rwrist -23.6972
rhand -22.6299 -3.63017
rfingers 7.12502
rthumb 3.8005 -33.576
lclavicle 2.55935e-014 -1.59028e-015
lhumerus -40.9906 -37.4342 100.611
lradius 109.907
lwrist -0.464604
lhand -29.0457 7.66228
lfingers 7.12502
lthumb -2.39582 37.6286
rfemur -28.8245 -4.57706 10.6828
rtibia 35.1694
rfoot -10.8864 -13.4245
rtoes -6.89412
lfemur -6.57616 -5.18888 -9.52581
ltibia 15.3676
lfoot -15.6551 22.4724
ltoes -8.71401
955
root -0.755113 15.5349 7.00893 12.0008 -8.80161 -0.543675
lowerback -0.53367 -1.5143 1.51855
upperback -6.70767 -1.89017 2.08438
thorax -6.65081 -0.966264 1.42423
lowerneck -13.0479 -3.27559 3.53037
upperneck 27.0846 -6.05739 1.2517
head 10.8185 -2.29179 -0.942868
rclavicle -2.61153e-014 1.11319e-014
rhumerus -12.116 1.12807 -69.4202
rradius 87.3894
rwrist -23.9856
rhand -21.8757 -3.6379
rfingers 7.12502
rthumb 4.52883 -33.5695
lclavicle -2.61153e-014 1.11319e-014
lhumerus -39.9111 -38.03 100.827
lradius 109.661
lwrist -0.511062
lhand -28.8774 7.73043
lfingers 7.12502
lthumb -2.23333 37.6985
rfemur -28.3843 -4.35793 10.3869
rtibia 34.3176
rfoot -10.1944 -13.8131
rtoes -7.18195
lfemur -6.79821 -5.358 -9.64225
ltibia 15.3413
lfoot -15.4882 22.1792
ltoes -8.98695
